<?xml version="1.0" encoding="utf-8"?>
<!-- Generator: Adobe Illustrator 27.9.0, SVG Export Plug-In . SVG Version: 6.00 Build 0)  -->
<svg version="1.1" id="Layer_1" xmlns="http://www.w3.org/2000/svg" xmlns:xlink="http://www.w3.org/1999/xlink" x="0px" y="0px"
	 viewBox="0 0 21.1 20.4" style="enable-background:new 0 0 21.1 20.4;" xml:space="preserve">
<style type="text/css">
	.st0{fill-rule:evenodd;clip-rule:evenodd;fill:#FFFFFF;fill-opacity:1.000000e-02;}
	.st1{fill:none;stroke:#FFFFFF;stroke-width:2;}
	.st2{fill:none;stroke:#FFFFFF;stroke-width:2;stroke-linecap:square;}
	.st3{fill:none;stroke:#131313;stroke-width:2;stroke-linecap:square;}
	.st4{fill:none;stroke:#1B1B1B;stroke-width:2;}
	.st5{fill:none;stroke:#131313;stroke-width:2;}
	.st6{fill:#1B1B1B;}
	.st7{fill-rule:evenodd;clip-rule:evenodd;fill:#1B1B1B;}
	.st8{fill:#FFFFFF;}
</style>
<g id="icons_sprite">
	<rect id="Rectangle-Copy-16" x="64.6" y="-6.2" class="st0" width="24" height="24"/>
	<rect id="Rectangle-Copy-20" x="112.6" y="-6.2" class="st0" width="24" height="24"/>
	<rect id="Rectangle-Copy-18" x="40.6" y="-6.2" class="st0" width="24" height="24"/>
	<rect id="Rectangle-Copy-21" x="88.6" y="-6.2" class="st0" width="24" height="24"/>
	<rect id="Rectangle-Copy-19" x="16.6" y="-6.2" class="st0" width="24" height="24"/>
	<polygon id="Rectangle" class="st0" points="15.8,-81.5 64.6,-54.2 64.6,-30.2 40.6,-30.2 	"/>
	<polygon id="Rectangle-Copy" class="st0" points="64.6,-54.2 82.3,-88.7 88.6,-30.2 64.6,-30.2 	"/>
	<rect id="Rectangle-Copy-5" x="88.6" y="-30.2" class="st0" width="24" height="24"/>
	<rect id="Rectangle-Copy-13" x="40.6" y="-30.2" class="st0" width="24" height="24"/>
	<g id="Group-3" transform="translate(96.000000, 24.000000)">
		<rect id="Rectangle-Copy-7" x="16.6" y="-54.2" class="st0" width="24" height="24"/>
		<g id="Cart-Button" transform="translate(1.000000, 1.000000)">
			<polyline id="Path" class="st1" points="16.6,-54.2 19.1,-51.2 19.1,-42.2 17.6,-38.6 38.6,-38.6 			"/>
			<polyline id="Path_00000183951932159236195630000009207837222816007560_" class="st1" points="19.4,-51.5 36.8,-51.5 33.8,-42.3 
				19.4,-42.3 			"/>
			<circle id="Oval" class="st2" cx="19.4" cy="-34.1" r="1.8"/>
			<circle id="Oval_00000063628242181487665280000003590606298521818009_" class="st2" cx="35.9" cy="-34.1" r="1.8"/>
		</g>
	</g>
	<rect id="Rectangle-Copy-15" x="64.6" y="-30.2" class="st0" width="24" height="24"/>
	<polyline id="Path_00000023964686918370751450000003738274930533899398_" class="st3" points="56.6,-20.2 52.6,-16.2 48.6,-20.2 	
		"/>
	<polyline id="Path-Copy" class="st3" points="80.6,-16.2 76.6,-20.2 72.6,-16.2 	"/>
	<circle id="Knob---Left" class="st4" cx="-42.6" cy="-68.3" r="7"/>
	<rect id="Rectangle-Copy-17" x="22.6" y="-107.8" class="st0" width="24" height="24"/>
	<polygon id="Rectangle-Copy-3" class="st0" points="106.3,-88.7 136.6,-54.2 136.6,-30.2 112.6,-30.2 	"/>
	<polygon id="Rectangle-Copy-2" class="st0" points="82.3,-88.7 106.3,-88.7 112.6,-30.2 88.6,-30.2 	"/>
	<g id="Group" transform="translate(0.000000, 24.000000)">
		<rect id="Rectangle-Copy-4" x="16.6" y="-54.2" class="st0" width="24" height="24"/>
		<g id="Search" transform="translate(2.000000, 2.000000)">
			<line id="Path_00000183224999118813459030000004036512158803329718_" class="st3" x1="36.6" y1="-34.2" x2="30.6" y2="-40.2"/>
			<circle id="Oval_00000071527605332640621480000011442106425652750236_" class="st3" cx="24.6" cy="-46.2" r="8"/>
		</g>
	</g>
	<g id="Cart-Button_00000018233497749957579280000010435299617349790395_" transform="translate(1.000000, 1.000000)">
		<polyline id="Path_00000031925166924337378880000007106382820101943191_" class="st5" points="-8.2,-81.5 -5.7,-78.5 -5.7,-69.5 
			-7.2,-65.9 13.8,-65.9 		"/>
		<polyline id="Path_00000129203583481584019350000017110733055860360069_" class="st5" points="-5.9,-78.8 11.5,-78.8 9,-69.6 
			-5.4,-69.6 		"/>
		<circle id="Oval_00000168086707303927259460000011587913554001394859_" class="st3" cx="-5.4" cy="-61.4" r="1.8"/>
		<circle id="Oval_00000048500791828687766800000009964719183235141046_" class="st3" cx="11.1" cy="-61.4" r="1.8"/>
	</g>
	<path id="Combined-Shape" class="st6" d="M105.3-70.7c0.6,0,1,0.4,1,1s-0.4,1-1,1h-22c-0.6,0-1-0.4-1-1s0.4-1,1-1H105.3z
		 M105.3-77.7c0.6,0,1,0.4,1,1s-0.4,1-1,1h-22c-0.6,0-1-0.4-1-1s0.4-1,1-1H105.3z M105.3-84.7c0.6,0,1,0.4,1,1s-0.4,1-1,1h-22
		c-0.6,0-1-0.4-1-1s0.4-1,1-1H105.3z"/>
	<polyline id="Arrow" class="st3" points="60.6,-46.2 52.6,-38.2 44.6,-46.2 	"/>
	<polyline id="Arrow-Copy" class="st3" points="84.6,-38.2 76.6,-46.2 68.6,-38.2 	"/>
	<g id="Add-to-Cart-Button" transform="translate(97.000000, 1.000000)">
		<polyline id="Path_00000122700280432914334990000011317989699172205490_" class="st5" points="16.6,-54.2 19.1,-51.2 19.1,-42.2 
			17.6,-38.6 38.6,-38.6 		"/>
		<polyline id="Path_00000101099278102691497970000000299840181683827358_" class="st5" points="19.4,-51.5 36.8,-51.5 33.8,-42.3 
			19.4,-42.3 		"/>
		<circle id="Oval_00000019674137502310721540000008377051986840036766_" class="st3" cx="19.4" cy="-34.1" r="1.8"/>
		<circle id="Oval_00000128485059065754921810000008513248915000830617_" class="st3" cx="35.9" cy="-34.1" r="1.8"/>
		
			<rect id="Rectangle_00000154421102453423746050000001461361578295153557_" x="26.7" y="-49.6" class="st7" width="1.8" height="5.5"/>
		<polygon id="Rectangle_00000084526612071138153210000001093289403542490041_" class="st7" points="30.4,-47.8 30.4,-46 24.9,-46 
			24.9,-47.8 		"/>
	</g>
	<g id="Group-2" transform="translate(3.000000, 51.000000)">
		<path id="Combined-Shape_00000057862371498481587210000006036595233337332887_" class="st8" d="M15.8-49.4c0.4,0.4,0.4,1,0,1.4
			l-7.1,7.1l7.1,7.1c0.4,0.4,0.4,1,0,1.4c-0.4,0.4-1,0.4-1.4,0l-7.1-7.1l-7.1,7.1c-0.4,0.4-1,0.4-1.4,0s-0.4-1,0-1.4l7.1-7.1
			L-1.2-48c-0.4-0.4-0.4-1,0-1.4c0.4-0.4,1-0.4,1.4,0l7.1,7.1l7.1-7.1C14.8-49.8,15.4-49.8,15.8-49.4z"/>
	</g>
</g>
</svg>
