<?xml version="1.0" encoding="utf-8"?>
<!-- Generator: Adobe Illustrator 27.9.0, SVG Export Plug-In . SVG Version: 6.00 Build 0)  -->
<svg version="1.1" id="Layer_1" xmlns="http://www.w3.org/2000/svg" xmlns:xlink="http://www.w3.org/1999/xlink" x="0px" y="0px"
	 viewBox="0 0 20 19.7" style="enable-background:new 0 0 20 19.7;" xml:space="preserve">
<style type="text/css">
	.st0{fill-rule:evenodd;clip-rule:evenodd;fill:#FFFFFF;fill-opacity:1.000000e-02;}
	.st1{fill:none;stroke:#FFFFFF;stroke-width:2;}
	.st2{fill:none;stroke:#FFFFFF;stroke-width:2;stroke-linecap:square;}
	.st3{fill:none;stroke:#131313;stroke-width:2;stroke-linecap:square;}
	.st4{fill:none;stroke:#1B1B1B;stroke-width:2;}
	.st5{fill:none;stroke:#131313;stroke-width:2;}
	.st6{fill:#1B1B1B;}
	.st7{fill-rule:evenodd;clip-rule:evenodd;fill:#1B1B1B;}
	.st8{fill:#FFFFFF;}
</style>
<g id="icons_sprite">
	<rect id="Rectangle-Copy-16" x="46" y="-1.9" class="st0" width="24" height="24"/>
	<rect id="Rectangle-Copy-20" x="94" y="-1.9" class="st0" width="24" height="24"/>
	<rect id="Rectangle-Copy-18" x="22" y="-1.9" class="st0" width="24" height="24"/>
	<rect id="Rectangle-Copy-21" x="70" y="-1.9" class="st0" width="24" height="24"/>
	<rect id="Rectangle-Copy-19" x="18" y="17.6" class="st0" width="24" height="24"/>
	<polygon id="Rectangle" class="st0" points="-2.8,-77.2 46,-49.9 46,-25.9 22,-25.9 	"/>
	<polygon id="Rectangle-Copy" class="st0" points="46,-49.9 63.7,-84.4 70,-25.9 46,-25.9 	"/>
	<rect id="Rectangle-Copy-5" x="70" y="-25.9" class="st0" width="24" height="24"/>
	<rect id="Rectangle-Copy-13" x="22" y="-25.9" class="st0" width="24" height="24"/>
	<g id="Group-3" transform="translate(96.000000, 24.000000)">
		<rect id="Rectangle-Copy-7" x="-2" y="-49.9" class="st0" width="24" height="24"/>
		<g id="Cart-Button" transform="translate(1.000000, 1.000000)">
			<polyline id="Path" class="st1" points="-2,-49.9 0.5,-46.9 0.5,-37.9 -1,-34.3 20,-34.3 			"/>
			<polyline id="Path_00000183951932159236195630000009207837222816007560_" class="st1" points="0.8,-47.2 18.2,-47.2 15.2,-38 
				0.8,-38 			"/>
			<circle id="Oval" class="st2" cx="0.8" cy="-29.8" r="1.8"/>
			<circle id="Oval_00000063628242181487665280000003590606298521818009_" class="st2" cx="17.3" cy="-29.8" r="1.8"/>
		</g>
	</g>
	<rect id="Rectangle-Copy-15" x="46" y="-25.9" class="st0" width="24" height="24"/>
	<polyline id="Path_00000023964686918370751450000003738274930533899398_" class="st3" points="38,-15.9 34,-11.9 30,-15.9 	"/>
	<polyline id="Path-Copy" class="st3" points="62,-11.9 58,-15.9 54,-11.9 	"/>
	<circle id="Knob---Left" class="st4" cx="-61.2" cy="-64" r="7"/>
	<rect id="Rectangle-Copy-17" x="4" y="-103.5" class="st0" width="24" height="24"/>
	<polygon id="Rectangle-Copy-3" class="st0" points="87.7,-84.4 118,-49.9 118,-25.9 94,-25.9 	"/>
	<polygon id="Rectangle-Copy-2" class="st0" points="63.7,-84.4 87.7,-84.4 94,-25.9 70,-25.9 	"/>
	<g id="Group" transform="translate(0.000000, 24.000000)">
		<rect id="Rectangle-Copy-4" x="-2" y="-49.9" class="st0" width="24" height="24"/>
		<g id="Search" transform="translate(2.000000, 2.000000)">
			<line id="Path_00000183224999118813459030000004036512158803329718_" class="st3" x1="18" y1="-29.9" x2="12" y2="-35.9"/>
			<circle id="Oval_00000071527605332640621480000011442106425652750236_" class="st3" cx="6" cy="-41.9" r="8"/>
		</g>
	</g>
	<g id="Cart-Button_00000018233497749957579280000010435299617349790395_" transform="translate(1.000000, 1.000000)">
		<polyline id="Path_00000031925166924337378880000007106382820101943191_" class="st5" points="-26.8,-77.2 -24.3,-74.2 
			-24.3,-65.2 -25.8,-61.6 -4.8,-61.6 		"/>
		<polyline id="Path_00000129203583481584019350000017110733055860360069_" class="st5" points="-24.5,-74.5 -7.1,-74.5 -9.6,-65.3 
			-24,-65.3 		"/>
		<circle id="Oval_00000168086707303927259460000011587913554001394859_" class="st3" cx="-24" cy="-57.1" r="1.8"/>
		<circle id="Oval_00000048500791828687766800000009964719183235141046_" class="st3" cx="-7.5" cy="-57.1" r="1.8"/>
	</g>
	<path id="Combined-Shape" class="st6" d="M86.7-66.4c0.6,0,1,0.4,1,1s-0.4,1-1,1h-22c-0.6,0-1-0.4-1-1s0.4-1,1-1H86.7z M86.7-73.4
		c0.6,0,1,0.4,1,1s-0.4,1-1,1h-22c-0.6,0-1-0.4-1-1s0.4-1,1-1H86.7z M86.7-80.4c0.6,0,1,0.4,1,1c0,0.6-0.4,1-1,1h-22
		c-0.6,0-1-0.4-1-1c0-0.6,0.4-1,1-1H86.7z"/>
	<polyline id="Arrow" class="st3" points="42,-41.9 34,-33.9 26,-41.9 	"/>
	<polyline id="Arrow-Copy" class="st3" points="66,-33.9 58,-41.9 50,-33.9 	"/>
	<g id="Add-to-Cart-Button" transform="translate(97.000000, 1.000000)">
		<polyline id="Path_00000122700280432914334990000011317989699172205490_" class="st5" points="-2,-49.9 0.5,-46.9 0.5,-37.9 
			-1,-34.3 20,-34.3 		"/>
		<polyline id="Path_00000101099278102691497970000000299840181683827358_" class="st5" points="0.8,-47.2 18.2,-47.2 15.2,-38 
			0.8,-38 		"/>
		<circle id="Oval_00000019674137502310721540000008377051986840036766_" class="st3" cx="0.8" cy="-29.8" r="1.8"/>
		<circle id="Oval_00000128485059065754921810000008513248915000830617_" class="st3" cx="17.3" cy="-29.8" r="1.8"/>
		
			<rect id="Rectangle_00000154421102453423746050000001461361578295153557_" x="8.1" y="-45.3" class="st7" width="1.8" height="5.5"/>
		<polygon id="Rectangle_00000084526612071138153210000001093289403542490041_" class="st7" points="11.8,-43.5 11.8,-41.7 
			6.3,-41.7 6.3,-43.5 		"/>
	</g>
	<g id="Group-2" transform="translate(3.000000, 51.000000)">
		<path id="Combined-Shape_00000057862371498481587210000006036595233337332887_" class="st8" d="M15.3-49.6c0.4,0.4,0.4,1,0,1.4
			l-7.1,7.1l7.1,7.1c0.4,0.4,0.4,1,0,1.4s-1,0.4-1.4,0l-7.1-7.1l-7.1,7.1c-0.4,0.4-1,0.4-1.4,0s-0.4-1,0-1.4l7.1-7.1l-7.1-7.1
			c-0.4-0.4-0.4-1,0-1.4c0.4-0.4,1-0.4,1.4,0l7.1,7.1l7.1-7.1C14.3-50,14.9-50,15.3-49.6z"/>
	</g>
</g>
</svg>
