<?xml version="1.0" encoding="utf-8"?>
<!-- Generator: Adobe Illustrator 27.9.0, SVG Export Plug-In . SVG Version: 6.00 Build 0)  -->
<svg version="1.1" id="Layer_1" xmlns="http://www.w3.org/2000/svg" xmlns:xlink="http://www.w3.org/1999/xlink" x="0px" y="0px"
	 viewBox="0 0 24 28" style="enable-background:new 0 0 24 28;" xml:space="preserve">
<style type="text/css">
	.st0{fill-rule:evenodd;clip-rule:evenodd;fill:#FFFFFF;fill-opacity:1.000000e-02;}
	.st1{fill:none;stroke:#FFFFFF;stroke-width:2;}
	.st2{fill:none;stroke:#FFFFFF;stroke-width:2;stroke-linecap:square;}
	.st3{fill:none;stroke:#131313;stroke-width:2;stroke-linecap:square;}
	.st4{fill:none;stroke:#1B1B1B;stroke-width:2;}
	.st5{fill:none;stroke:#131313;stroke-width:2;}
	.st6{fill:#1B1B1B;}
	.st7{fill-rule:evenodd;clip-rule:evenodd;fill:#1B1B1B;}
	.st8{fill:#FFFFFF;}
</style>
<g id="icons_sprite">
	<rect id="Rectangle-Copy-16" x="72.8" y="77.7" class="st0" width="24" height="24"/>
	<rect id="Rectangle-Copy-20" x="120.8" y="77.7" class="st0" width="24" height="24"/>
	<rect id="Rectangle-Copy-18" x="48.8" y="77.7" class="st0" width="24" height="24"/>
	<rect id="Rectangle-Copy-21" x="96.8" y="77.7" class="st0" width="24" height="24"/>
	<rect id="Rectangle-Copy-19" x="24.8" y="77.7" class="st0" width="24" height="24"/>
	<polygon id="Rectangle" class="st0" points="24,2.3 72.8,29.7 72.8,53.7 48.8,53.7 	"/>
	<rect id="Rectangle-Copy" x="72.8" y="29.7" class="st0" width="24" height="24"/>
	<rect id="Rectangle-Copy-5" x="96.8" y="53.7" class="st0" width="24" height="24"/>
	<rect id="Rectangle-Copy-13" x="48.8" y="53.7" class="st0" width="24" height="24"/>
	<g id="Group-3" transform="translate(96.000000, 24.000000)">
		<rect id="Rectangle-Copy-7" x="24.8" y="29.7" class="st0" width="24" height="24"/>
		<g id="Cart-Button" transform="translate(1.000000, 1.000000)">
			<polyline id="Path" class="st1" points="24.8,29.7 27.3,32.7 27.3,41.7 25.8,45.3 46.8,45.3 			"/>
			<polyline id="Path_00000183951932159236195630000009207837222816007560_" class="st1" points="27.6,32.4 45,32.4 42,41.6 
				27.6,41.6 			"/>
			<circle id="Oval" class="st2" cx="27.6" cy="49.8" r="1.8"/>
			<circle id="Oval_00000063628242181487665280000003590606298521818009_" class="st2" cx="44.1" cy="49.8" r="1.8"/>
		</g>
	</g>
	<rect id="Rectangle-Copy-15" x="72.8" y="53.7" class="st0" width="24" height="24"/>
	<polyline id="Path_00000023964686918370751450000003738274930533899398_" class="st3" points="64.8,63.7 60.8,67.7 56.8,63.7 	"/>
	<polyline id="Path-Copy" class="st3" points="88.8,67.7 84.8,63.7 80.8,67.7 	"/>
	<circle id="Knob---Left" class="st4" cx="-34.4" cy="15.6" r="7"/>
	<rect id="Rectangle-Copy-17" x="30.8" y="-24" class="st0" width="24" height="24"/>
	<rect id="Rectangle-Copy-3" x="120.8" y="29.7" class="st0" width="24" height="24"/>
	<rect id="Rectangle-Copy-2" x="96.8" y="29.7" class="st0" width="24" height="24"/>
	<g id="Group" transform="translate(0.000000, 24.000000)">
		<rect id="Rectangle-Copy-4" x="24.8" y="29.7" class="st0" width="24" height="24"/>
		<g id="Search" transform="translate(2.000000, 2.000000)">
			<line id="Path_00000183224999118813459030000004036512158803329718_" class="st3" x1="44.8" y1="49.7" x2="38.8" y2="43.7"/>
			<circle id="Oval_00000071527605332640621480000011442106425652750236_" class="st3" cx="32.8" cy="37.7" r="8"/>
		</g>
	</g>
	<g id="Cart-Button_00000018233497749957579280000010435299617349790395_" transform="translate(1.000000, 1.000000)">
		<polyline id="Path_00000031925166924337378880000007106382820101943191_" class="st5" points="0,2.3 2.5,5.3 2.5,14.3 1,17.9 
			22,17.9 		"/>
		<polyline id="Path_00000129203583481584019350000017110733055860360069_" class="st5" points="2.3,5 19.7,5 17.2,14.2 2.8,14.2 		
			"/>
		<circle id="Oval_00000168086707303927259460000011587913554001394859_" class="st3" cx="2.8" cy="22.4" r="1.8"/>
		<circle id="Oval_00000048500791828687766800000009964719183235141046_" class="st3" cx="19.3" cy="22.4" r="1.8"/>
	</g>
	<path id="Combined-Shape" class="st6" d="M119.8,47.7c0.6,0,1,0.4,1,1s-0.4,1-1,1h-22c-0.6,0-1-0.4-1-1s0.4-1,1-1H119.8z
		 M119.8,40.7c0.6,0,1,0.4,1,1s-0.4,1-1,1h-22c-0.6,0-1-0.4-1-1s0.4-1,1-1H119.8z M119.8,33.7c0.6,0,1,0.4,1,1c0,0.6-0.4,1-1,1h-22
		c-0.6,0-1-0.4-1-1c0-0.6,0.4-1,1-1H119.8z"/>
	<polyline id="Arrow" class="st3" points="68.8,37.7 60.8,45.7 52.8,37.7 	"/>
	<polyline id="Arrow-Copy" class="st3" points="92.8,45.7 84.8,37.7 76.8,45.7 	"/>
	<g id="Add-to-Cart-Button" transform="translate(97.000000, 1.000000)">
		<polyline id="Path_00000122700280432914334990000011317989699172205490_" class="st5" points="24.8,29.7 27.3,32.7 27.3,41.7 
			25.8,45.3 46.8,45.3 		"/>
		<polyline id="Path_00000101099278102691497970000000299840181683827358_" class="st5" points="27.6,32.4 45,32.4 42,41.6 
			27.6,41.6 		"/>
		<circle id="Oval_00000019674137502310721540000008377051986840036766_" class="st3" cx="27.6" cy="49.8" r="1.8"/>
		<circle id="Oval_00000128485059065754921810000008513248915000830617_" class="st3" cx="44.1" cy="49.8" r="1.8"/>
		
			<rect id="Rectangle_00000154421102453423746050000001461361578295153557_" x="34.9" y="34.3" class="st7" width="1.8" height="5.5"/>
		<polygon id="Rectangle_00000084526612071138153210000001093289403542490041_" class="st7" points="38.6,36.1 38.6,37.9 33.1,37.9 
			33.1,36.1 		"/>
	</g>
	<g id="Group-2" transform="translate(3.000000, 51.000000)">
		<path id="Combined-Shape_00000057862371498481587210000006036595233337332887_" class="st8" d="M42.1,30c0.4,0.4,0.4,1,0,1.4
			L35,38.5l7.1,7.1c0.4,0.4,0.4,1,0,1.4s-1,0.4-1.4,0l-7.1-7.1L26.5,47c-0.4,0.4-1,0.4-1.4,0s-0.4-1,0-1.4l7.1-7.1l-7.1-7.1
			c-0.4-0.4-0.4-1,0-1.4s1-0.4,1.4,0l7.1,7.1l7.1-7.1C41.1,29.6,41.7,29.6,42.1,30z"/>
	</g>
</g>
</svg>
