<?xml version="1.0" encoding="utf-8"?>
<!-- Generator: Adobe Illustrator 27.9.0, SVG Export Plug-In . SVG Version: 6.00 Build 0)  -->
<svg version="1.1" id="Layer_1" xmlns="http://www.w3.org/2000/svg" xmlns:xlink="http://www.w3.org/1999/xlink" x="0px" y="0px"
	 viewBox="0 0 23.7 21.8" style="enable-background:new 0 0 23.7 21.8;" xml:space="preserve">
<style type="text/css">
	.st0{fill-rule:evenodd;clip-rule:evenodd;fill:#FFFFFF;fill-opacity:1.000000e-02;}
	.st1{fill:none;stroke:#FFFFFF;stroke-width:2;}
	.st2{fill:none;stroke:#FFFFFF;stroke-width:2;stroke-linecap:square;}
	.st3{fill:none;stroke:#131313;stroke-width:2;stroke-linecap:square;}
	.st4{fill:none;stroke:#1B1B1B;stroke-width:2;}
	.st5{fill:none;stroke:#131313;stroke-width:2;}
	.st6{fill:#1B1B1B;}
	.st7{fill-rule:evenodd;clip-rule:evenodd;fill:#1B1B1B;}
	.st8{fill:#FFFFFF;}
</style>
<g id="icons_sprite">
	<rect id="Rectangle-Copy-16" x="118.8" y="73.5" class="st0" width="24" height="24"/>
	<rect id="Rectangle-Copy-20" x="166.8" y="73.5" class="st0" width="24" height="24"/>
	<rect id="Rectangle-Copy-18" x="94.8" y="73.5" class="st0" width="24" height="24"/>
	<rect id="Rectangle-Copy-21" x="142.8" y="73.5" class="st0" width="24" height="24"/>
	<rect id="Rectangle-Copy-19" x="70.8" y="73.5" class="st0" width="24" height="24"/>
	<rect id="Rectangle" x="94.8" y="25.5" class="st0" width="24" height="24"/>
	<rect id="Rectangle-Copy" x="118.8" y="25.5" class="st0" width="24" height="24"/>
	<rect id="Rectangle-Copy-5" x="142.8" y="49.5" class="st0" width="24" height="24"/>
	<rect id="Rectangle-Copy-13" x="94.8" y="49.5" class="st0" width="24" height="24"/>
	<g id="Group-3" transform="translate(96.000000, 24.000000)">
		<rect id="Rectangle-Copy-7" x="70.8" y="25.5" class="st0" width="24" height="24"/>
		<g id="Cart-Button" transform="translate(1.000000, 1.000000)">
			<polyline id="Path" class="st1" points="70.8,25.5 73.3,28.5 73.3,37.5 71.8,41.1 92.8,41.1 			"/>
			<polyline id="Path_00000183951932159236195630000009207837222816007560_" class="st1" points="73.6,28.2 91,28.2 88,37.4 
				73.6,37.4 			"/>
			<circle id="Oval" class="st2" cx="73.6" cy="45.6" r="1.8"/>
			<circle id="Oval_00000063628242181487665280000003590606298521818009_" class="st2" cx="90.1" cy="45.6" r="1.8"/>
		</g>
	</g>
	<rect id="Rectangle-Copy-15" x="118.8" y="49.5" class="st0" width="24" height="24"/>
	<polyline id="Path_00000023964686918370751450000003738274930533899398_" class="st3" points="110.8,59.5 106.8,63.5 102.8,59.5 	
		"/>
	<polyline id="Path-Copy" class="st3" points="134.8,63.5 130.8,59.5 126.8,63.5 	"/>
	<circle id="Knob---Left" class="st4" cx="11.6" cy="11.4" r="7"/>
	<rect id="Rectangle-Copy-17" x="70.8" y="25.5" class="st0" width="24" height="24"/>
	<rect id="Rectangle-Copy-3" x="166.8" y="25.5" class="st0" width="24" height="24"/>
	<rect id="Rectangle-Copy-2" x="142.8" y="25.5" class="st0" width="24" height="24"/>
	<g id="Group" transform="translate(0.000000, 24.000000)">
		<rect id="Rectangle-Copy-4" x="70.8" y="25.5" class="st0" width="24" height="24"/>
		<g id="Search" transform="translate(2.000000, 2.000000)">
			<line id="Path_00000183224999118813459030000004036512158803329718_" class="st3" x1="90.8" y1="45.5" x2="84.8" y2="39.5"/>
			<circle id="Oval_00000071527605332640621480000011442106425652750236_" class="st3" cx="78.8" cy="33.5" r="8"/>
		</g>
	</g>
	<g id="Cart-Button_00000018233497749957579280000010435299617349790395_" transform="translate(1.000000, 1.000000)">
		<polyline id="Path_00000031925166924337378880000007106382820101943191_" class="st5" points="70.8,25.5 73.3,28.5 73.3,37.5 
			71.8,41.1 92.8,41.1 		"/>
		<polyline id="Path_00000129203583481584019350000017110733055860360069_" class="st5" points="73.6,28.2 91,28.2 88,37.4 
			73.6,37.4 		"/>
		<circle id="Oval_00000168086707303927259460000011587913554001394859_" class="st3" cx="73.6" cy="45.6" r="1.8"/>
		<circle id="Oval_00000048500791828687766800000009964719183235141046_" class="st3" cx="90.1" cy="45.6" r="1.8"/>
	</g>
	<path id="Combined-Shape" class="st6" d="M165.8,43.5c0.6,0,1,0.4,1,1c0,0.6-0.4,1-1,1h-22c-0.6,0-1-0.4-1-1c0-0.6,0.4-1,1-1H165.8
		z M165.8,36.5c0.6,0,1,0.4,1,1c0,0.6-0.4,1-1,1h-22c-0.6,0-1-0.4-1-1c0-0.6,0.4-1,1-1H165.8z M165.8,29.5c0.6,0,1,0.4,1,1
		s-0.4,1-1,1h-22c-0.6,0-1-0.4-1-1s0.4-1,1-1H165.8z"/>
	<polyline id="Arrow" class="st3" points="114.8,33.5 106.8,41.5 98.8,33.5 	"/>
	<polyline id="Arrow-Copy" class="st3" points="138.8,41.5 130.8,33.5 122.8,41.5 	"/>
	<g id="Add-to-Cart-Button" transform="translate(97.000000, 1.000000)">
		<polyline id="Path_00000122700280432914334990000011317989699172205490_" class="st5" points="70.8,25.5 73.3,28.5 73.3,37.5 
			71.8,41.1 92.8,41.1 		"/>
		<polyline id="Path_00000101099278102691497970000000299840181683827358_" class="st5" points="73.6,28.2 91,28.2 88,37.4 
			73.6,37.4 		"/>
		<circle id="Oval_00000019674137502310721540000008377051986840036766_" class="st3" cx="73.6" cy="45.6" r="1.8"/>
		<circle id="Oval_00000128485059065754921810000008513248915000830617_" class="st3" cx="90.1" cy="45.6" r="1.8"/>
		
			<rect id="Rectangle_00000154421102453423746050000001461361578295153557_" x="80.9" y="30.1" class="st7" width="1.8" height="5.5"/>
		<polygon id="Rectangle_00000084526612071138153210000001093289403542490041_" class="st7" points="84.6,31.9 84.6,33.7 79.1,33.7 
			79.1,31.9 		"/>
	</g>
	<g id="Group-2" transform="translate(3.000000, 51.000000)">
		<path id="Combined-Shape_00000057862371498481587210000006036595233337332887_" class="st8" d="M88.1,25.8c0.4,0.4,0.4,1,0,1.4
			L81,34.3l7.1,7.1c0.4,0.4,0.4,1,0,1.4s-1,0.4-1.4,0l-7.1-7.1l-7.1,7.1c-0.4,0.4-1,0.4-1.4,0s-0.4-1,0-1.4l7.1-7.1l-7.1-7.1
			c-0.4-0.4-0.4-1,0-1.4c0.4-0.4,1-0.4,1.4,0l7.1,7.1l7.1-7.1C87.1,25.4,87.7,25.4,88.1,25.8z"/>
	</g>
</g>
</svg>
